<svg width="1100" height="420" viewBox="0 0 1100 420" fill="none" xmlns="http://www.w3.org/2000/svg">
  <rect width="1100" height="420" fill="#F9FAFE"/>
  <rect x="36" y="42" width="1028" height="336" rx="14" fill="#FFFFFF" stroke="#E6EAF3"/>

  <rect x="74" y="82" width="622" height="258" rx="12" fill="#FCFCFF" stroke="#ECEFF7"/>
  <rect x="96" y="106" width="578" height="52" rx="10" fill="#F6F0F7"/>
  <rect x="118" y="126" width="264" height="12" rx="6" fill="#7A6178"/>

  <rect x="96" y="176" width="578" height="62" rx="10" fill="#FFFFFF" stroke="#EEF1F8"/>
  <rect x="118" y="198" width="178" height="12" rx="6" fill="#7C8199"/>
  <rect x="118" y="216" width="128" height="10" rx="5" fill="#B2B7C6"/>

  <rect x="732" y="82" width="328" height="258" rx="12" fill="#FFFFFF" stroke="#E6EAF2"/>
  <rect x="754" y="108" width="190" height="16" rx="8" fill="#C8CFDF"/>

  <rect x="754" y="142" width="282" height="52" rx="10" fill="#F1F7FA" stroke="#DDECF2"/>
  <rect x="776" y="162" width="128" height="12" rx="6" fill="#2D6D72"/>

  <rect x="754" y="204" width="282" height="52" rx="10" fill="#F7F3FA" stroke="#E7DDF0"/>
  <rect x="776" y="224" width="102" height="12" rx="6" fill="#6B537B"/>

  <rect x="96" y="266" width="90" height="46" rx="10" fill="#714B67"/>
  <text x="118" y="295" fill="#FFFFFF" font-family="Lato, Arial, sans-serif" font-size="20" font-weight="700">Enter</text>
  <rect x="198" y="266" width="140" height="46" rx="10" fill="#EAF0F6"/>
  <text x="218" y="295" fill="#5F6B83" font-family="Lato, Arial, sans-serif" font-size="20" font-weight="700">Shift+Enter</text>

  <path d="M774 62C858 34 956 38 1020 66" stroke="#FFD768" stroke-width="14" stroke-linecap="round" opacity="0.6"/>
</svg>
