<svg width="1280" height="720" viewBox="0 0 1280 720" fill="none" xmlns="http://www.w3.org/2000/svg">
  <rect width="1280" height="720" rx="28" fill="#F7F8FC"/>
  <rect x="38" y="38" width="1204" height="644" rx="22" fill="#FFFFFF" stroke="#E4E6F0"/>
  <rect x="76" y="84" width="1128" height="70" rx="18" fill="#F7F3F8" stroke="#E9DFE7"/>
  <circle cx="112" cy="119" r="13" fill="#BFAEC0"/>
  <rect x="140" y="106" width="368" height="24" rx="12" fill="#D3C5D1"/>
  <rect x="1034" y="102" width="146" height="32" rx="10" fill="#714B67"/>

  <rect x="76" y="186" width="544" height="452" rx="16" fill="#FCFCFF" stroke="#ECEEF6"/>
  <rect x="104" y="218" width="132" height="20" rx="10" fill="#DDD2DD"/>
  <rect x="248" y="218" width="108" height="20" rx="10" fill="#DDF0F1"/>

  <rect x="104" y="260" width="488" height="72" rx="12" fill="#F6F1F7"/>
  <rect x="122" y="279" width="18" height="18" rx="9" fill="#714B67"/>
  <rect x="150" y="274" width="220" height="12" rx="6" fill="#7E6679"/>
  <rect x="150" y="292" width="146" height="10" rx="5" fill="#AFA4B0"/>
  <rect x="496" y="278" width="76" height="26" rx="8" fill="#FFFFFF" stroke="#DCCFDA"/>

  <rect x="104" y="344" width="488" height="72" rx="12" fill="#FFFFFF" stroke="#F0F1F8"/>
  <rect x="122" y="363" width="18" height="18" rx="9" fill="#8DBDBA"/>
  <rect x="150" y="358" width="264" height="12" rx="6" fill="#7A7C8E"/>
  <rect x="150" y="376" width="162" height="10" rx="5" fill="#B2B5C2"/>
  <rect x="496" y="362" width="76" height="26" rx="8" fill="#FFFFFF" stroke="#DDE2EC"/>

  <rect x="104" y="428" width="488" height="72" rx="12" fill="#FFFFFF" stroke="#F0F1F8"/>
  <rect x="122" y="447" width="18" height="18" rx="9" fill="#D7B687"/>
  <rect x="150" y="442" width="188" height="12" rx="6" fill="#7A7C8E"/>
  <rect x="150" y="460" width="196" height="10" rx="5" fill="#B2B5C2"/>

  <rect x="660" y="186" width="544" height="452" rx="16" fill="#FBFCFE" stroke="#ECEEF6"/>
  <rect x="694" y="224" width="288" height="36" rx="11" fill="#714B67"/>
  <rect x="1000" y="224" width="170" height="36" rx="11" fill="#EDF3F6"/>

  <rect x="694" y="286" width="476" height="146" rx="14" fill="#FFFFFF" stroke="#E9EDF5"/>
  <rect x="722" y="316" width="140" height="20" rx="10" fill="#D4D9E6"/>
  <rect x="722" y="348" width="406" height="12" rx="6" fill="#8B8FA3"/>
  <rect x="722" y="368" width="360" height="12" rx="6" fill="#B6BAC9"/>

  <rect x="694" y="452" width="228" height="150" rx="14" fill="#FFFFFF" stroke="#E9EDF5"/>
  <rect x="722" y="482" width="122" height="18" rx="9" fill="#D4D9E6"/>
  <rect x="722" y="513" width="164" height="10" rx="5" fill="#AAB0C0"/>
  <rect x="722" y="531" width="144" height="10" rx="5" fill="#C2C7D4"/>

  <rect x="942" y="452" width="228" height="150" rx="14" fill="#FFFFFF" stroke="#E9EDF5"/>
  <rect x="970" y="482" width="122" height="18" rx="9" fill="#D4D9E6"/>
  <rect x="970" y="513" width="164" height="10" rx="5" fill="#AAB0C0"/>
  <rect x="970" y="531" width="144" height="10" rx="5" fill="#C2C7D4"/>

  <path d="M258 72C370 44 517 36 608 58" stroke="#FFD768" stroke-width="18" stroke-linecap="round" opacity="0.6"/>
  <text x="96" y="655" fill="#7B7E90" font-family="Lato, Arial, sans-serif" font-size="24">Odoo Spotlight · Search everything faster, keep the Odoo flow</text>
</svg>
